<?xml version="1.0" encoding="UTF-8"?>
<svg xmlns="http://www.w3.org/2000/svg" viewBox="0 0 1600 900" font-size="14">
  <!-- agent-illustrator dev -->
  <style><![CDATA[
    @import url('https://fonts.googleapis.com/css2?family=Overpass:wght@400;600;700;800&family=Overpass+Mono:wght@400;600&display=swap');
    :root {
    --accent-1: #2196f3;
    --accent-2: #e3f2fd;
    --accent-3: #bbdefb;
    --accent-dark: #1565c0;
    --accent-light: #e3f2fd;
    --background-1: #ffffff;
    --background-2: #f5f5f5;
    --background-3: #eeeeee;
    --background-dark: #333333;
    --background-light: #ffffff;
    --code-add: var(--role-ok);
    --code-add-bg: var(--role-ok-soft);
    --code-add-strong: var(--role-ok);
    --code-bg: var(--role-surface);
    --code-comment: var(--role-muted);
    --code-del: var(--role-error);
    --code-del-bg: var(--role-error-soft);
    --code-del-strong: var(--role-error);
    --code-frame: var(--role-ink);
    --code-function: var(--role-ink);
    --code-key: var(--role-primary);
    --code-keyword: var(--role-primary);
    --code-ln: var(--role-muted);
    --code-mark-bg: var(--role-warn-soft);
    --code-number: var(--role-ink);
    --code-plain: var(--role-ink);
    --code-string: var(--role-ok);
    --code-title: var(--role-ink);
    --code-title-bg: var(--role-surface-2);
    --font-mono: 'Overpass Mono', Consolas, monospace;
    --font-sans: 'Overpass', 'Segoe UI', Arial, sans-serif;
    --foreground-1: #333333;
    --foreground-2: #666666;
    --foreground-3: #999999;
    --foreground-dark: #1a1a1a;
    --foreground-light: #e0e0e0;
    --git-anna: #0E8A8A;
    --git-ben: #E07A12;
    --git-branch: #C92C76;
    --git-ink: #14171F;
    --git-lost: #D2382A;
    --git-lost-soft: #F6DEDB;
    --git-main: #2346D8;
    --git-muted: #5F6780;
    --git-ok: #1C9A5B;
    --git-ok-soft: #DDF1E6;
    --git-panel: #FFFFFF;
    --git-paper: #E9ECF0;
    --git-paper2: #F4F6F8;
    --git-rule: #CBD1DA;
    --git-warn: #F0B400;
    --role-backdrop: var(--git-paper);
    --role-error: var(--git-lost);
    --role-error-soft: var(--git-lost-soft);
    --role-ink: var(--git-ink);
    --role-muted: var(--git-muted);
    --role-ok: var(--git-ok);
    --role-ok-soft: var(--git-ok-soft);
    --role-primary: var(--git-main);
    --role-rule: var(--git-rule);
    --role-secondary: var(--git-branch);
    --role-series-1: var(--git-anna);
    --role-series-1-soft: #D2ECEC;
    --role-series-2: var(--git-ben);
    --role-series-2-soft: #FAE3CC;
    --role-series-3: #7b4bb7;
    --role-series-3-soft: #e8def3;
    --role-series-4: #c2185b;
    --role-series-4-soft: #f6d7e3;
    --role-surface: var(--git-panel);
    --role-surface-2: var(--git-paper2);
    --role-warn: var(--git-warn);
    --role-warn-soft: #FDF1C7;
    --secondary-1: #ff9800;
    --secondary-2: #fff3e0;
    --secondary-3: #ffe0b2;
    --secondary-dark: #e65100;
    --secondary-light: #fff3e0;
    --status-error: #f44336;
    --status-success: #4caf50;
    --status-warning: #ff9800;
    --text-1: #333333;
    --text-2: #666666;
    --text-3: #999999;
    --text-dark: #1a1a1a;
    --text-light: #ffffff;
  }
  .ai-on-dark { fill: var(--text-light); }
    /* git-deck.css */
/* Palette and type for the "git for non-git people" deck. */
:root {
  --git-paper: #E9ECF0;
  --git-paper2: #F4F6F8;
  --git-panel: #FFFFFF;
  --git-ink: #14171F;
  --git-muted: #5F6780;
  --git-rule: #CBD1DA;
  --git-main: #2346D8;
  /* Roles: the scenes and ail:motion/git use only these. */
  --role-primary: var(--git-main);
  --role-secondary: var(--git-branch);
  --role-ink: var(--git-ink);
  --role-muted: var(--git-muted);
  --role-rule: var(--git-rule);
  --role-surface: var(--git-panel);
  --role-surface-2: var(--git-paper2);
  --role-backdrop: var(--git-paper);
  --role-ok: var(--git-ok);
  --role-error: var(--git-lost);
  --role-warn: var(--git-warn);
  --role-ok-soft: var(--git-ok-soft);
  --role-error-soft: var(--git-lost-soft);
  --role-warn-soft: #FDF1C7;
  --role-series-1: var(--git-anna);
  --role-series-2: var(--git-ben);
  --role-series-1-soft: #D2ECEC;
  --role-series-2-soft: #FAE3CC;
  --git-branch: #C92C76;
  --git-anna: #0E8A8A;
  --git-ben: #E07A12;
  --git-lost: #D2382A;
  --git-warn: #F0B400;
  --git-ok: #1C9A5B;
  --git-ok-soft: #DDF1E6;
  --git-lost-soft: #F6DEDB;
  /* Retime the whole deck here. */
  --ail-motion-fast: .25s;
  --ail-motion-normal: .5s;
  --ail-motion-slow: .8s;
  /* Overpass Mono is a little wider than the usual 0.6em. */
  --ail-mono-advance: 0.616;
  --font-sans: 'Overpass', 'Segoe UI', Arial, sans-serif;
  --font-mono: 'Overpass Mono', Consolas, monospace;
}
/* Inherited, so a label's own font_family / font_weight still wins. */
svg { font-family: var(--font-sans); }
.dots { stroke-linecap: round; }
text { white-space: pre; }
  ]]></style>
  <g id="s" class="ai-container">
    <rect id="s_stage" class="ai-shape ai-rect ai-canvas" x="0" y="0" width="1600" height="900" fill="var(--role-backdrop)" stroke="none" stroke-width="1.5"/>
    <rect id="s_badge" class="ai-shape ai-rect" x="96" y="64" width="66" height="66" fill="var(--role-ink)" stroke="none" stroke-width="1.5" rx="16" style="rx:16px;ry:16px"/>
    <text class="ai-label" x="129" y="97" text-anchor="middle" dominant-baseline="middle" font-size="38" fill="var(--role-backdrop)" style="font-weight:800"><tspan x="129" dy="-0"><tspan>1</tspan></tspan></text>
    <text id="s_heading" class="ai-shape ai-text" x="184" y="97" text-anchor="start" dominant-baseline="middle" font-size="60" fill="var(--role-ink)" style="font-weight:800">Sound familiar?</text>
  </g>
  <g id="docs" class="ai-container">
    <g id="d0" class="ai-container" transform="rotate(1.9432 290 320.125)">
      <g id="d0_pg" class="ai-container">
        <g id="d0_pg__art" class="ai-svg-embed" transform="translate(231.202, 225.5) scale(1, 1) translate(-1.5, -1.5)">
          <title>Document</title>
          <!-- Parts (ids) are addressable from AIL: d.sheet, d.fold, d.bars, d.bar1..bar6.
          Colours are theme roles; the CSS variables b1 to b6 are instance arguments.
          The sheet has its corner cut off, so the background shows behind the fold. -->
        </g>
        <g id="d0_pg_sheet" class="ai-svg-embed" transform="translate(229.702, 224) scale(1, 1) translate(0.00000095367431640625, 0.00000095367431640625)" fill="var(--role-surface, #ffffff)" stroke="var(--role-ink, #14171f)">
          <path id="d0_pg__sheet" d="M9.5 1.5 H94 L124.5 32 V152.5 a8 8 0 0 1 -8 8 H9.5 a8 8 0 0 1 -8 -8 V9.5 a8 8 0 0 1 8 -8 Z" stroke-width="3" stroke-linejoin="round" fill="inherit" stroke="inherit"/>
        </g>
        <g id="d0_pg_fold" class="ai-svg-embed" transform="translate(322.202, 224) scale(1, 1) translate(-92.5, -0)">
          <g id="d0_pg__fold">
          <path d="M94 1.5 V26 a6 6 0 0 0 6 6 H124.5 Z" fill="var(--role-rule, #cbd1da)"/>
          <path d="M94 1.5 V26 a6 6 0 0 0 6 6 H124.5" fill="none" stroke="var(--role-ink, #14171f)"
          stroke-width="3" stroke-linejoin="round" stroke-linecap="round"/>
          </g>
        </g>
        <g id="d0_pg_bars" class="ai-container">
          <g id="d0_pg_bar1" class="ai-svg-embed" transform="translate(246.702, 264) scale(1, 1) translate(-17, -40)" stroke="var(--b1, var(--role-rule, #cbd1da))">
            <g stroke-width="9" stroke-linecap="round"><line id="d0_pg__bar1" x1="21.5" y1="44.5" x2="100.5" y2="44.5" stroke="inherit"/></g>
          </g>
          <g id="d0_pg_bar2" class="ai-svg-embed" transform="translate(246.702, 285) scale(1, 1) translate(-17, -61)" stroke="var(--b2, var(--role-rule, #cbd1da))">
            <g stroke-width="9" stroke-linecap="round"><line id="d0_pg__bar2" x1="21.5" y1="65.5" x2="82.5" y2="65.5" stroke="inherit"/></g>
          </g>
          <g id="d0_pg_bar3" class="ai-svg-embed" transform="translate(246.702, 306) scale(1, 1) translate(-17, -82)" stroke="var(--b3, var(--role-rule, #cbd1da))">
            <g stroke-width="9" stroke-linecap="round"><line id="d0_pg__bar3" x1="21.5" y1="86.5" x2="67.5" y2="86.5" stroke="inherit"/></g>
          </g>
          <g id="d0_pg_bar4" class="ai-svg-embed" transform="translate(246.702, 327) scale(1, 1) translate(-17, -103)" stroke="var(--b4, var(--role-rule, #cbd1da))">
            <g stroke-width="9" stroke-linecap="round"><line id="d0_pg__bar4" x1="21.5" y1="107.5" x2="82.5" y2="107.5" stroke="inherit"/></g>
          </g>
          <g id="d0_pg_bar5" class="ai-svg-embed" transform="translate(246.702, 348) scale(1, 1) translate(-17, -124)" stroke="var(--b5, var(--role-rule, #cbd1da))">
            <g stroke-width="9" stroke-linecap="round"><line id="d0_pg__bar5" x1="21.5" y1="128.5" x2="100.5" y2="128.5" stroke="inherit"/></g>
          </g>
          <g id="d0_pg_bar6" class="ai-svg-embed" transform="translate(246.702, 369) scale(1, 1) translate(-17, -145)" stroke="var(--b6, var(--role-rule, #cbd1da))">
            <g stroke-width="9" stroke-linecap="round"><line id="d0_pg__bar6" x1="21.5" y1="149.5" x2="67.5" y2="149.5" stroke="inherit"/></g>
          </g>
        </g>
      </g>
      <rect id="d0_name" class="ai-shape ai-rect" x="227.106" y="398" width="131.192" height="37.25" fill="none" stroke="none" stroke-width="1.5"/>
      <text class="ai-label" x="292.702" y="416.625" text-anchor="middle" dominant-baseline="middle" font-size="17" fill="var(--role-ink)" style="font-family:var(--font-mono, ui-monospace, monospace)"><tspan x="292.702" dy="-0"><tspan>report.docx</tspan></tspan></text>
      <circle id="d0_q" class="ai-shape ai-circle q" cx="244.702" cy="228" r="23" fill="var(--role-warn)" stroke="var(--role-ink)" stroke-width="3"/>
      <text class="ai-label" x="244.702" y="228" text-anchor="middle" dominant-baseline="middle" font-size="28" fill="var(--role-ink)" style="font-weight:800"><tspan x="244.702" dy="-0"><tspan>?</tspan></tspan></text>
    </g>
    <g id="d1" class="ai-container" transform="rotate(2.9192 630 320.125)">
      <g id="d1_pg" class="ai-container">
        <g id="d1_pg__art" class="ai-svg-embed" transform="translate(568.5, 225.5) scale(1, 1) translate(-1.5, -1.5)">
          <title>Document</title>
          <!-- Parts (ids) are addressable from AIL: d.sheet, d.fold, d.bars, d.bar1..bar6.
          Colours are theme roles; the CSS variables b1 to b6 are instance arguments.
          The sheet has its corner cut off, so the background shows behind the fold. -->
        </g>
        <g id="d1_pg_sheet" class="ai-svg-embed" transform="translate(567, 224) scale(1, 1) translate(0.00000095367431640625, 0.00000095367431640625)" fill="var(--role-surface, #ffffff)" stroke="var(--role-ink, #14171f)">
          <path id="d1_pg__sheet" d="M9.5 1.5 H94 L124.5 32 V152.5 a8 8 0 0 1 -8 8 H9.5 a8 8 0 0 1 -8 -8 V9.5 a8 8 0 0 1 8 -8 Z" stroke-width="3" stroke-linejoin="round" fill="inherit" stroke="inherit"/>
        </g>
        <g id="d1_pg_fold" class="ai-svg-embed" transform="translate(659.5, 224) scale(1, 1) translate(-92.5, -0)">
          <g id="d1_pg__fold">
          <path d="M94 1.5 V26 a6 6 0 0 0 6 6 H124.5 Z" fill="var(--role-rule, #cbd1da)"/>
          <path d="M94 1.5 V26 a6 6 0 0 0 6 6 H124.5" fill="none" stroke="var(--role-ink, #14171f)"
          stroke-width="3" stroke-linejoin="round" stroke-linecap="round"/>
          </g>
        </g>
        <g id="d1_pg_bars" class="ai-container">
          <g id="d1_pg_bar1" class="ai-svg-embed" transform="translate(584, 264) scale(1, 1) translate(-17, -40)" stroke="var(--b1, var(--role-rule, #cbd1da))">
            <g stroke-width="9" stroke-linecap="round"><line id="d1_pg__bar1" x1="21.5" y1="44.5" x2="100.5" y2="44.5" stroke="inherit"/></g>
          </g>
          <g id="d1_pg_bar2" class="ai-svg-embed" transform="translate(584, 285) scale(1, 1) translate(-17, -61)" stroke="var(--b2, var(--role-rule, #cbd1da))">
            <g stroke-width="9" stroke-linecap="round"><line id="d1_pg__bar2" x1="21.5" y1="65.5" x2="82.5" y2="65.5" stroke="inherit"/></g>
          </g>
          <g id="d1_pg_bar3" class="ai-svg-embed" transform="translate(584, 306) scale(1, 1) translate(-17, -82)" stroke="var(--b3, var(--role-rule, #cbd1da))">
            <g stroke-width="9" stroke-linecap="round"><line id="d1_pg__bar3" x1="21.5" y1="86.5" x2="67.5" y2="86.5" stroke="inherit"/></g>
          </g>
          <g id="d1_pg_bar4" class="ai-svg-embed" transform="translate(584, 327) scale(1, 1) translate(-17, -103)" stroke="var(--b4, var(--role-rule, #cbd1da))">
            <g stroke-width="9" stroke-linecap="round"><line id="d1_pg__bar4" x1="21.5" y1="107.5" x2="82.5" y2="107.5" stroke="inherit"/></g>
          </g>
          <g id="d1_pg_bar5" class="ai-svg-embed" transform="translate(584, 348) scale(1, 1) translate(-17, -124)" stroke="var(--b5, var(--role-rule, #cbd1da))">
            <g stroke-width="9" stroke-linecap="round"><line id="d1_pg__bar5" x1="21.5" y1="128.5" x2="100.5" y2="128.5" stroke="inherit"/></g>
          </g>
          <g id="d1_pg_bar6" class="ai-svg-embed" transform="translate(584, 369) scale(1, 1) translate(-17, -145)" stroke="var(--b6, var(--role-rule, #cbd1da))">
            <g stroke-width="9" stroke-linecap="round"><line id="d1_pg__bar6" x1="21.5" y1="149.5" x2="67.5" y2="149.5" stroke="inherit"/></g>
          </g>
        </g>
      </g>
      <rect id="d1_name" class="ai-shape ai-rect" x="548.696" y="398" width="162.608" height="37.25" fill="none" stroke="none" stroke-width="1.5"/>
      <text class="ai-label" x="630" y="416.625" text-anchor="middle" dominant-baseline="middle" font-size="17" fill="var(--role-ink)" style="font-family:var(--font-mono, ui-monospace, monospace)"><tspan x="630" dy="-0"><tspan>report_v2.docx</tspan></tspan></text>
      <circle id="d1_q" class="ai-shape ai-circle q" cx="582" cy="228" r="23" fill="var(--role-warn)" stroke="var(--role-ink)" stroke-width="3"/>
      <text class="ai-label" x="582" y="228" text-anchor="middle" dominant-baseline="middle" font-size="28" fill="var(--role-ink)" style="font-weight:800"><tspan x="582" dy="-0"><tspan>?</tspan></tspan></text>
    </g>
    <g id="d2" class="ai-container" transform="rotate(-0.7664 970 320.125)">
      <g id="d2_pg" class="ai-container">
        <g id="d2_pg__art" class="ai-svg-embed" transform="translate(908.5, 225.5) scale(1, 1) translate(-1.5, -1.5)">
          <title>Document</title>
          <!-- Parts (ids) are addressable from AIL: d.sheet, d.fold, d.bars, d.bar1..bar6.
          Colours are theme roles; the CSS variables b1 to b6 are instance arguments.
          The sheet has its corner cut off, so the background shows behind the fold. -->
        </g>
        <g id="d2_pg_sheet" class="ai-svg-embed" transform="translate(907, 224) scale(1, 1) translate(0.00000095367431640625, 0.00000095367431640625)" fill="var(--role-surface, #ffffff)" stroke="var(--role-ink, #14171f)">
          <path id="d2_pg__sheet" d="M9.5 1.5 H94 L124.5 32 V152.5 a8 8 0 0 1 -8 8 H9.5 a8 8 0 0 1 -8 -8 V9.5 a8 8 0 0 1 8 -8 Z" stroke-width="3" stroke-linejoin="round" fill="inherit" stroke="inherit"/>
        </g>
        <g id="d2_pg_fold" class="ai-svg-embed" transform="translate(999.5, 224) scale(1, 1) translate(-92.5, -0)">
          <g id="d2_pg__fold">
          <path d="M94 1.5 V26 a6 6 0 0 0 6 6 H124.5 Z" fill="var(--role-rule, #cbd1da)"/>
          <path d="M94 1.5 V26 a6 6 0 0 0 6 6 H124.5" fill="none" stroke="var(--role-ink, #14171f)"
          stroke-width="3" stroke-linejoin="round" stroke-linecap="round"/>
          </g>
        </g>
        <g id="d2_pg_bars" class="ai-container">
          <g id="d2_pg_bar1" class="ai-svg-embed" transform="translate(924, 264) scale(1, 1) translate(-17, -40)" stroke="var(--b1, var(--role-rule, #cbd1da))">
            <g stroke-width="9" stroke-linecap="round"><line id="d2_pg__bar1" x1="21.5" y1="44.5" x2="100.5" y2="44.5" stroke="inherit"/></g>
          </g>
          <g id="d2_pg_bar2" class="ai-svg-embed" transform="translate(924, 285) scale(1, 1) translate(-17, -61)" stroke="var(--b2, var(--role-rule, #cbd1da))">
            <g stroke-width="9" stroke-linecap="round"><line id="d2_pg__bar2" x1="21.5" y1="65.5" x2="82.5" y2="65.5" stroke="inherit"/></g>
          </g>
          <g id="d2_pg_bar3" class="ai-svg-embed" transform="translate(924, 306) scale(1, 1) translate(-17, -82)" stroke="var(--b3, var(--role-rule, #cbd1da))">
            <g stroke-width="9" stroke-linecap="round"><line id="d2_pg__bar3" x1="21.5" y1="86.5" x2="67.5" y2="86.5" stroke="inherit"/></g>
          </g>
          <g id="d2_pg_bar4" class="ai-svg-embed" transform="translate(924, 327) scale(1, 1) translate(-17, -103)" stroke="var(--b4, var(--role-rule, #cbd1da))">
            <g stroke-width="9" stroke-linecap="round"><line id="d2_pg__bar4" x1="21.5" y1="107.5" x2="82.5" y2="107.5" stroke="inherit"/></g>
          </g>
          <g id="d2_pg_bar5" class="ai-svg-embed" transform="translate(924, 348) scale(1, 1) translate(-17, -124)" stroke="var(--b5, var(--role-rule, #cbd1da))">
            <g stroke-width="9" stroke-linecap="round"><line id="d2_pg__bar5" x1="21.5" y1="128.5" x2="100.5" y2="128.5" stroke="inherit"/></g>
          </g>
          <g id="d2_pg_bar6" class="ai-svg-embed" transform="translate(924, 369) scale(1, 1) translate(-17, -145)" stroke="var(--b6, var(--role-rule, #cbd1da))">
            <g stroke-width="9" stroke-linecap="round"><line id="d2_pg__bar6" x1="21.5" y1="149.5" x2="67.5" y2="149.5" stroke="inherit"/></g>
          </g>
        </g>
      </g>
      <rect id="d2_name" class="ai-shape ai-rect" x="862.516" y="398" width="214.968" height="37.25" fill="none" stroke="none" stroke-width="1.5"/>
      <text class="ai-label" x="970" y="416.625" text-anchor="middle" dominant-baseline="middle" font-size="17" fill="var(--role-ink)" style="font-family:var(--font-mono, ui-monospace, monospace)"><tspan x="970" dy="-0"><tspan>report_v2_anna.docx</tspan></tspan></text>
      <circle id="d2_q" class="ai-shape ai-circle q" cx="922" cy="228" r="23" fill="var(--role-warn)" stroke="var(--role-ink)" stroke-width="3"/>
      <text class="ai-label" x="922" y="228" text-anchor="middle" dominant-baseline="middle" font-size="28" fill="var(--role-ink)" style="font-weight:800"><tspan x="922" dy="-0"><tspan>?</tspan></tspan></text>
    </g>
    <g id="d3" class="ai-container" transform="rotate(-3.0664 1310 320.125)">
      <g id="d3_pg" class="ai-container">
        <g id="d3_pg__art" class="ai-svg-embed" transform="translate(1248.5, 225.5) scale(1, 1) translate(-1.5, -1.5)">
          <title>Document</title>
          <!-- Parts (ids) are addressable from AIL: d.sheet, d.fold, d.bars, d.bar1..bar6.
          Colours are theme roles; the CSS variables b1 to b6 are instance arguments.
          The sheet has its corner cut off, so the background shows behind the fold. -->
        </g>
        <g id="d3_pg_sheet" class="ai-svg-embed" transform="translate(1247, 224) scale(1, 1) translate(0.00000095367431640625, 0.00000095367431640625)" fill="var(--role-surface, #ffffff)" stroke="var(--role-ink, #14171f)">
          <path id="d3_pg__sheet" d="M9.5 1.5 H94 L124.5 32 V152.5 a8 8 0 0 1 -8 8 H9.5 a8 8 0 0 1 -8 -8 V9.5 a8 8 0 0 1 8 -8 Z" stroke-width="3" stroke-linejoin="round" fill="inherit" stroke="inherit"/>
        </g>
        <g id="d3_pg_fold" class="ai-svg-embed" transform="translate(1339.5, 224) scale(1, 1) translate(-92.5, -0)">
          <g id="d3_pg__fold">
          <path d="M94 1.5 V26 a6 6 0 0 0 6 6 H124.5 Z" fill="var(--role-rule, #cbd1da)"/>
          <path d="M94 1.5 V26 a6 6 0 0 0 6 6 H124.5" fill="none" stroke="var(--role-ink, #14171f)"
          stroke-width="3" stroke-linejoin="round" stroke-linecap="round"/>
          </g>
        </g>
        <g id="d3_pg_bars" class="ai-container">
          <g id="d3_pg_bar1" class="ai-svg-embed" transform="translate(1264, 264) scale(1, 1) translate(-17, -40)" stroke="var(--b1, var(--role-rule, #cbd1da))">
            <g stroke-width="9" stroke-linecap="round"><line id="d3_pg__bar1" x1="21.5" y1="44.5" x2="100.5" y2="44.5" stroke="inherit"/></g>
          </g>
          <g id="d3_pg_bar2" class="ai-svg-embed" transform="translate(1264, 285) scale(1, 1) translate(-17, -61)" stroke="var(--b2, var(--role-rule, #cbd1da))">
            <g stroke-width="9" stroke-linecap="round"><line id="d3_pg__bar2" x1="21.5" y1="65.5" x2="82.5" y2="65.5" stroke="inherit"/></g>
          </g>
          <g id="d3_pg_bar3" class="ai-svg-embed" transform="translate(1264, 306) scale(1, 1) translate(-17, -82)" stroke="var(--b3, var(--role-rule, #cbd1da))">
            <g stroke-width="9" stroke-linecap="round"><line id="d3_pg__bar3" x1="21.5" y1="86.5" x2="67.5" y2="86.5" stroke="inherit"/></g>
          </g>
          <g id="d3_pg_bar4" class="ai-svg-embed" transform="translate(1264, 327) scale(1, 1) translate(-17, -103)" stroke="var(--b4, var(--role-rule, #cbd1da))">
            <g stroke-width="9" stroke-linecap="round"><line id="d3_pg__bar4" x1="21.5" y1="107.5" x2="82.5" y2="107.5" stroke="inherit"/></g>
          </g>
          <g id="d3_pg_bar5" class="ai-svg-embed" transform="translate(1264, 348) scale(1, 1) translate(-17, -124)" stroke="var(--b5, var(--role-rule, #cbd1da))">
            <g stroke-width="9" stroke-linecap="round"><line id="d3_pg__bar5" x1="21.5" y1="128.5" x2="100.5" y2="128.5" stroke="inherit"/></g>
          </g>
          <g id="d3_pg_bar6" class="ai-svg-embed" transform="translate(1264, 369) scale(1, 1) translate(-17, -145)" stroke="var(--b6, var(--role-rule, #cbd1da))">
            <g stroke-width="9" stroke-linecap="round"><line id="d3_pg__bar6" x1="21.5" y1="149.5" x2="67.5" y2="149.5" stroke="inherit"/></g>
          </g>
        </g>
      </g>
      <rect id="d3_name" class="ai-shape ai-rect" x="1212.988" y="398" width="194.024" height="37.25" fill="none" stroke="none" stroke-width="1.5"/>
      <text class="ai-label" x="1310" y="416.625" text-anchor="middle" dominant-baseline="middle" font-size="17" fill="var(--role-ink)" style="font-family:var(--font-mono, ui-monospace, monospace)"><tspan x="1310" dy="-0"><tspan>report_final.docx</tspan></tspan></text>
      <circle id="d3_q" class="ai-shape ai-circle q" cx="1262" cy="228" r="23" fill="var(--role-warn)" stroke="var(--role-ink)" stroke-width="3"/>
      <text class="ai-label" x="1262" y="228" text-anchor="middle" dominant-baseline="middle" font-size="28" fill="var(--role-ink)" style="font-weight:800"><tspan x="1262" dy="-0"><tspan>?</tspan></tspan></text>
    </g>
    <g id="d4" class="ai-container" transform="rotate(3.4528 290 600.125)">
      <g id="d4_pg" class="ai-container">
        <g id="d4_pg__art" class="ai-svg-embed" transform="translate(228.5, 505.5) scale(1, 1) translate(-1.5, -1.5)">
          <title>Document</title>
          <!-- Parts (ids) are addressable from AIL: d.sheet, d.fold, d.bars, d.bar1..bar6.
          Colours are theme roles; the CSS variables b1 to b6 are instance arguments.
          The sheet has its corner cut off, so the background shows behind the fold. -->
        </g>
        <g id="d4_pg_sheet" class="ai-svg-embed" transform="translate(227, 504) scale(1, 1) translate(0.00000095367431640625, 0.00000095367431640625)" fill="var(--role-surface, #ffffff)" stroke="var(--role-ink, #14171f)">
          <path id="d4_pg__sheet" d="M9.5 1.5 H94 L124.5 32 V152.5 a8 8 0 0 1 -8 8 H9.5 a8 8 0 0 1 -8 -8 V9.5 a8 8 0 0 1 8 -8 Z" stroke-width="3" stroke-linejoin="round" fill="inherit" stroke="inherit"/>
        </g>
        <g id="d4_pg_fold" class="ai-svg-embed" transform="translate(319.5, 504) scale(1, 1) translate(-92.5, -0)">
          <g id="d4_pg__fold">
          <path d="M94 1.5 V26 a6 6 0 0 0 6 6 H124.5 Z" fill="var(--role-rule, #cbd1da)"/>
          <path d="M94 1.5 V26 a6 6 0 0 0 6 6 H124.5" fill="none" stroke="var(--role-ink, #14171f)"
          stroke-width="3" stroke-linejoin="round" stroke-linecap="round"/>
          </g>
        </g>
        <g id="d4_pg_bars" class="ai-container">
          <g id="d4_pg_bar1" class="ai-svg-embed" transform="translate(244, 544) scale(1, 1) translate(-17, -40)" stroke="var(--b1, var(--role-rule, #cbd1da))">
            <g stroke-width="9" stroke-linecap="round"><line id="d4_pg__bar1" x1="21.5" y1="44.5" x2="100.5" y2="44.5" stroke="inherit"/></g>
          </g>
          <g id="d4_pg_bar2" class="ai-svg-embed" transform="translate(244, 565) scale(1, 1) translate(-17, -61)" stroke="var(--b2, var(--role-rule, #cbd1da))">
            <g stroke-width="9" stroke-linecap="round"><line id="d4_pg__bar2" x1="21.5" y1="65.5" x2="82.5" y2="65.5" stroke="inherit"/></g>
          </g>
          <g id="d4_pg_bar3" class="ai-svg-embed" transform="translate(244, 586) scale(1, 1) translate(-17, -82)" stroke="var(--b3, var(--role-rule, #cbd1da))">
            <g stroke-width="9" stroke-linecap="round"><line id="d4_pg__bar3" x1="21.5" y1="86.5" x2="67.5" y2="86.5" stroke="inherit"/></g>
          </g>
          <g id="d4_pg_bar4" class="ai-svg-embed" transform="translate(244, 607) scale(1, 1) translate(-17, -103)" stroke="var(--b4, var(--role-rule, #cbd1da))">
            <g stroke-width="9" stroke-linecap="round"><line id="d4_pg__bar4" x1="21.5" y1="107.5" x2="82.5" y2="107.5" stroke="inherit"/></g>
          </g>
          <g id="d4_pg_bar5" class="ai-svg-embed" transform="translate(244, 628) scale(1, 1) translate(-17, -124)" stroke="var(--b5, var(--role-rule, #cbd1da))">
            <g stroke-width="9" stroke-linecap="round"><line id="d4_pg__bar5" x1="21.5" y1="128.5" x2="100.5" y2="128.5" stroke="inherit"/></g>
          </g>
          <g id="d4_pg_bar6" class="ai-svg-embed" transform="translate(244, 649) scale(1, 1) translate(-17, -145)" stroke="var(--b6, var(--role-rule, #cbd1da))">
            <g stroke-width="9" stroke-linecap="round"><line id="d4_pg__bar6" x1="21.5" y1="149.5" x2="67.5" y2="149.5" stroke="inherit"/></g>
          </g>
        </g>
      </g>
      <rect id="d4_name" class="ai-shape ai-rect" x="187.752" y="678" width="204.496" height="37.25" fill="none" stroke="none" stroke-width="1.5"/>
      <text class="ai-label" x="290" y="696.625" text-anchor="middle" dominant-baseline="middle" font-size="17" fill="var(--role-ink)" style="font-family:var(--font-mono, ui-monospace, monospace)"><tspan x="290" dy="-0"><tspan>report_final2.docx</tspan></tspan></text>
      <circle id="d4_q" class="ai-shape ai-circle q" cx="242" cy="508" r="23" fill="var(--role-warn)" stroke="var(--role-ink)" stroke-width="3"/>
      <text class="ai-label" x="242" y="508" text-anchor="middle" dominant-baseline="middle" font-size="28" fill="var(--role-ink)" style="font-weight:800"><tspan x="242" dy="-0"><tspan>?</tspan></tspan></text>
    </g>
    <g id="d5" class="ai-container" transform="rotate(0.5076 630 600.125)">
      <g id="d5_pg" class="ai-container">
        <g id="d5_pg__art" class="ai-svg-embed" transform="translate(568.5, 505.5) scale(1, 1) translate(-1.5, -1.5)">
          <title>Document</title>
          <!-- Parts (ids) are addressable from AIL: d.sheet, d.fold, d.bars, d.bar1..bar6.
          Colours are theme roles; the CSS variables b1 to b6 are instance arguments.
          The sheet has its corner cut off, so the background shows behind the fold. -->
        </g>
        <g id="d5_pg_sheet" class="ai-svg-embed" transform="translate(567, 504) scale(1, 1) translate(0.00000095367431640625, 0.00000095367431640625)" fill="var(--role-surface, #ffffff)" stroke="var(--role-ink, #14171f)">
          <path id="d5_pg__sheet" d="M9.5 1.5 H94 L124.5 32 V152.5 a8 8 0 0 1 -8 8 H9.5 a8 8 0 0 1 -8 -8 V9.5 a8 8 0 0 1 8 -8 Z" stroke-width="3" stroke-linejoin="round" fill="inherit" stroke="inherit"/>
        </g>
        <g id="d5_pg_fold" class="ai-svg-embed" transform="translate(659.5, 504) scale(1, 1) translate(-92.5, -0)">
          <g id="d5_pg__fold">
          <path d="M94 1.5 V26 a6 6 0 0 0 6 6 H124.5 Z" fill="var(--role-rule, #cbd1da)"/>
          <path d="M94 1.5 V26 a6 6 0 0 0 6 6 H124.5" fill="none" stroke="var(--role-ink, #14171f)"
          stroke-width="3" stroke-linejoin="round" stroke-linecap="round"/>
          </g>
        </g>
        <g id="d5_pg_bars" class="ai-container">
          <g id="d5_pg_bar1" class="ai-svg-embed" transform="translate(584, 544) scale(1, 1) translate(-17, -40)" stroke="var(--b1, var(--role-rule, #cbd1da))">
            <g stroke-width="9" stroke-linecap="round"><line id="d5_pg__bar1" x1="21.5" y1="44.5" x2="100.5" y2="44.5" stroke="inherit"/></g>
          </g>
          <g id="d5_pg_bar2" class="ai-svg-embed" transform="translate(584, 565) scale(1, 1) translate(-17, -61)" stroke="var(--b2, var(--role-rule, #cbd1da))">
            <g stroke-width="9" stroke-linecap="round"><line id="d5_pg__bar2" x1="21.5" y1="65.5" x2="82.5" y2="65.5" stroke="inherit"/></g>
          </g>
          <g id="d5_pg_bar3" class="ai-svg-embed" transform="translate(584, 586) scale(1, 1) translate(-17, -82)" stroke="var(--b3, var(--role-rule, #cbd1da))">
            <g stroke-width="9" stroke-linecap="round"><line id="d5_pg__bar3" x1="21.5" y1="86.5" x2="67.5" y2="86.5" stroke="inherit"/></g>
          </g>
          <g id="d5_pg_bar4" class="ai-svg-embed" transform="translate(584, 607) scale(1, 1) translate(-17, -103)" stroke="var(--b4, var(--role-rule, #cbd1da))">
            <g stroke-width="9" stroke-linecap="round"><line id="d5_pg__bar4" x1="21.5" y1="107.5" x2="82.5" y2="107.5" stroke="inherit"/></g>
          </g>
          <g id="d5_pg_bar5" class="ai-svg-embed" transform="translate(584, 628) scale(1, 1) translate(-17, -124)" stroke="var(--b5, var(--role-rule, #cbd1da))">
            <g stroke-width="9" stroke-linecap="round"><line id="d5_pg__bar5" x1="21.5" y1="128.5" x2="100.5" y2="128.5" stroke="inherit"/></g>
          </g>
          <g id="d5_pg_bar6" class="ai-svg-embed" transform="translate(584, 649) scale(1, 1) translate(-17, -145)" stroke="var(--b6, var(--role-rule, #cbd1da))">
            <g stroke-width="9" stroke-linecap="round"><line id="d5_pg__bar6" x1="21.5" y1="149.5" x2="67.5" y2="149.5" stroke="inherit"/></g>
          </g>
        </g>
      </g>
      <rect id="d5_name" class="ai-shape ai-rect" x="496.336" y="678" width="267.328" height="37.25" fill="none" stroke="none" stroke-width="1.5"/>
      <text class="ai-label" x="630" y="696.625" text-anchor="middle" dominant-baseline="middle" font-size="17" fill="var(--role-ink)" style="font-family:var(--font-mono, ui-monospace, monospace)"><tspan x="630" dy="-0"><tspan>report_final_REALLY.docx</tspan></tspan></text>
      <circle id="d5_q" class="ai-shape ai-circle q" cx="582" cy="508" r="23" fill="var(--role-warn)" stroke="var(--role-ink)" stroke-width="3"/>
      <text class="ai-label" x="582" y="508" text-anchor="middle" dominant-baseline="middle" font-size="28" fill="var(--role-ink)" style="font-weight:800"><tspan x="582" dy="-0"><tspan>?</tspan></tspan></text>
    </g>
    <g id="d6" class="ai-container" transform="rotate(1.6196000000000002 970 610.75)">
      <g id="d6_pg" class="ai-container">
        <g id="d6_pg__art" class="ai-svg-embed" transform="translate(908.5, 505.5) scale(1, 1) translate(-1.5, -1.5)">
          <title>Document</title>
          <!-- Parts (ids) are addressable from AIL: d.sheet, d.fold, d.bars, d.bar1..bar6.
          Colours are theme roles; the CSS variables b1 to b6 are instance arguments.
          The sheet has its corner cut off, so the background shows behind the fold. -->
        </g>
        <g id="d6_pg_sheet" class="ai-svg-embed" transform="translate(907, 504) scale(1, 1) translate(0.00000095367431640625, 0.00000095367431640625)" fill="var(--role-surface, #ffffff)" stroke="var(--role-ink, #14171f)">
          <path id="d6_pg__sheet" d="M9.5 1.5 H94 L124.5 32 V152.5 a8 8 0 0 1 -8 8 H9.5 a8 8 0 0 1 -8 -8 V9.5 a8 8 0 0 1 8 -8 Z" stroke-width="3" stroke-linejoin="round" fill="inherit" stroke="inherit"/>
        </g>
        <g id="d6_pg_fold" class="ai-svg-embed" transform="translate(999.5, 504) scale(1, 1) translate(-92.5, -0)">
          <g id="d6_pg__fold">
          <path d="M94 1.5 V26 a6 6 0 0 0 6 6 H124.5 Z" fill="var(--role-rule, #cbd1da)"/>
          <path d="M94 1.5 V26 a6 6 0 0 0 6 6 H124.5" fill="none" stroke="var(--role-ink, #14171f)"
          stroke-width="3" stroke-linejoin="round" stroke-linecap="round"/>
          </g>
        </g>
        <g id="d6_pg_bars" class="ai-container">
          <g id="d6_pg_bar1" class="ai-svg-embed" transform="translate(924, 544) scale(1, 1) translate(-17, -40)" stroke="var(--b1, var(--role-rule, #cbd1da))">
            <g stroke-width="9" stroke-linecap="round"><line id="d6_pg__bar1" x1="21.5" y1="44.5" x2="100.5" y2="44.5" stroke="inherit"/></g>
          </g>
          <g id="d6_pg_bar2" class="ai-svg-embed" transform="translate(924, 565) scale(1, 1) translate(-17, -61)" stroke="var(--b2, var(--role-rule, #cbd1da))">
            <g stroke-width="9" stroke-linecap="round"><line id="d6_pg__bar2" x1="21.5" y1="65.5" x2="82.5" y2="65.5" stroke="inherit"/></g>
          </g>
          <g id="d6_pg_bar3" class="ai-svg-embed" transform="translate(924, 586) scale(1, 1) translate(-17, -82)" stroke="var(--b3, var(--role-rule, #cbd1da))">
            <g stroke-width="9" stroke-linecap="round"><line id="d6_pg__bar3" x1="21.5" y1="86.5" x2="67.5" y2="86.5" stroke="inherit"/></g>
          </g>
          <g id="d6_pg_bar4" class="ai-svg-embed" transform="translate(924, 607) scale(1, 1) translate(-17, -103)" stroke="var(--b4, var(--role-rule, #cbd1da))">
            <g stroke-width="9" stroke-linecap="round"><line id="d6_pg__bar4" x1="21.5" y1="107.5" x2="82.5" y2="107.5" stroke="inherit"/></g>
          </g>
          <g id="d6_pg_bar5" class="ai-svg-embed" transform="translate(924, 628) scale(1, 1) translate(-17, -124)" stroke="var(--b5, var(--role-rule, #cbd1da))">
            <g stroke-width="9" stroke-linecap="round"><line id="d6_pg__bar5" x1="21.5" y1="128.5" x2="100.5" y2="128.5" stroke="inherit"/></g>
          </g>
          <g id="d6_pg_bar6" class="ai-svg-embed" transform="translate(924, 649) scale(1, 1) translate(-17, -145)" stroke="var(--b6, var(--role-rule, #cbd1da))">
            <g stroke-width="9" stroke-linecap="round"><line id="d6_pg__bar6" x1="21.5" y1="149.5" x2="67.5" y2="149.5" stroke="inherit"/></g>
          </g>
        </g>
      </g>
      <rect id="d6_name" class="ai-shape ai-rect" x="836.336" y="678" width="267.328" height="58.5" fill="none" stroke="none" stroke-width="1.5"/>
      <text class="ai-label" x="970" y="707.25" text-anchor="middle" dominant-baseline="middle" font-size="17" fill="var(--role-ink)" style="font-family:var(--font-mono, ui-monospace, monospace)"><tspan x="970" dy="-10.625"><tspan>Copy of</tspan></tspan><tspan x="970" dy="21.25"><tspan>report_final_REALLY.docx</tspan></tspan></text>
      <circle id="d6_q" class="ai-shape ai-circle q" cx="922" cy="508" r="23" fill="var(--role-warn)" stroke="var(--role-ink)" stroke-width="3"/>
      <text class="ai-label" x="922" y="508" text-anchor="middle" dominant-baseline="middle" font-size="28" fill="var(--role-ink)" style="font-weight:800"><tspan x="922" dy="-0"><tspan>?</tspan></tspan></text>
    </g>
    <g id="d7" class="ai-container" transform="rotate(-0.19640000000000013 1310 600.125)">
      <g id="d7_pg" class="ai-container">
        <g id="d7_pg__art" class="ai-svg-embed" transform="translate(1248.5, 505.5) scale(1, 1) translate(-1.5, -1.5)">
          <title>Document</title>
          <!-- Parts (ids) are addressable from AIL: d.sheet, d.fold, d.bars, d.bar1..bar6.
          Colours are theme roles; the CSS variables b1 to b6 are instance arguments.
          The sheet has its corner cut off, so the background shows behind the fold. -->
        </g>
        <g id="d7_pg_sheet" class="ai-svg-embed" transform="translate(1247, 504) scale(1, 1) translate(0.00000095367431640625, 0.00000095367431640625)" fill="var(--role-surface, #ffffff)" stroke="var(--role-ink, #14171f)">
          <path id="d7_pg__sheet" d="M9.5 1.5 H94 L124.5 32 V152.5 a8 8 0 0 1 -8 8 H9.5 a8 8 0 0 1 -8 -8 V9.5 a8 8 0 0 1 8 -8 Z" stroke-width="3" stroke-linejoin="round" fill="inherit" stroke="inherit"/>
        </g>
        <g id="d7_pg_fold" class="ai-svg-embed" transform="translate(1339.5, 504) scale(1, 1) translate(-92.5, -0)">
          <g id="d7_pg__fold">
          <path d="M94 1.5 V26 a6 6 0 0 0 6 6 H124.5 Z" fill="var(--role-rule, #cbd1da)"/>
          <path d="M94 1.5 V26 a6 6 0 0 0 6 6 H124.5" fill="none" stroke="var(--role-ink, #14171f)"
          stroke-width="3" stroke-linejoin="round" stroke-linecap="round"/>
          </g>
        </g>
        <g id="d7_pg_bars" class="ai-container">
          <g id="d7_pg_bar1" class="ai-svg-embed" transform="translate(1264, 544) scale(1, 1) translate(-17, -40)" stroke="var(--b1, var(--role-rule, #cbd1da))">
            <g stroke-width="9" stroke-linecap="round"><line id="d7_pg__bar1" x1="21.5" y1="44.5" x2="100.5" y2="44.5" stroke="inherit"/></g>
          </g>
          <g id="d7_pg_bar2" class="ai-svg-embed" transform="translate(1264, 565) scale(1, 1) translate(-17, -61)" stroke="var(--b2, var(--role-rule, #cbd1da))">
            <g stroke-width="9" stroke-linecap="round"><line id="d7_pg__bar2" x1="21.5" y1="65.5" x2="82.5" y2="65.5" stroke="inherit"/></g>
          </g>
          <g id="d7_pg_bar3" class="ai-svg-embed" transform="translate(1264, 586) scale(1, 1) translate(-17, -82)" stroke="var(--b3, var(--role-rule, #cbd1da))">
            <g stroke-width="9" stroke-linecap="round"><line id="d7_pg__bar3" x1="21.5" y1="86.5" x2="67.5" y2="86.5" stroke="inherit"/></g>
          </g>
          <g id="d7_pg_bar4" class="ai-svg-embed" transform="translate(1264, 607) scale(1, 1) translate(-17, -103)" stroke="var(--b4, var(--role-rule, #cbd1da))">
            <g stroke-width="9" stroke-linecap="round"><line id="d7_pg__bar4" x1="21.5" y1="107.5" x2="82.5" y2="107.5" stroke="inherit"/></g>
          </g>
          <g id="d7_pg_bar5" class="ai-svg-embed" transform="translate(1264, 628) scale(1, 1) translate(-17, -124)" stroke="var(--b5, var(--role-rule, #cbd1da))">
            <g stroke-width="9" stroke-linecap="round"><line id="d7_pg__bar5" x1="21.5" y1="128.5" x2="100.5" y2="128.5" stroke="inherit"/></g>
          </g>
          <g id="d7_pg_bar6" class="ai-svg-embed" transform="translate(1264, 649) scale(1, 1) translate(-17, -145)" stroke="var(--b6, var(--role-rule, #cbd1da))">
            <g stroke-width="9" stroke-linecap="round"><line id="d7_pg__bar6" x1="21.5" y1="149.5" x2="67.5" y2="149.5" stroke="inherit"/></g>
          </g>
        </g>
      </g>
      <rect id="d7_name" class="ai-shape ai-rect" x="1176.336" y="678" width="267.328" height="37.25" fill="none" stroke="none" stroke-width="1.5"/>
      <text class="ai-label" x="1310" y="696.625" text-anchor="middle" dominant-baseline="middle" font-size="17" fill="var(--role-ink)" style="font-family:var(--font-mono, ui-monospace, monospace)"><tspan x="1310" dy="-0"><tspan>report_OLD_dont_use.docx</tspan></tspan></text>
      <circle id="d7_q" class="ai-shape ai-circle q" cx="1262" cy="508" r="23" fill="var(--role-warn)" stroke="var(--role-ink)" stroke-width="3"/>
      <text class="ai-label" x="1262" y="508" text-anchor="middle" dominant-baseline="middle" font-size="28" fill="var(--role-ink)" style="font-weight:800"><tspan x="1262" dy="-0"><tspan>?</tspan></tspan></text>
    </g>
  </g>
  <g id="codes" class="ai-container">
  </g>
  <rect id="hub" class="ai-shape ai-rect ai-point" x="800" y="470.75" width="0" height="0" fill="none" stroke="none" stroke-width="1.5"/>
</svg>